<?xml version="1.0" standalone="no"?>
<!DOCTYPE svg PUBLIC "-//W3C//DTD SVG 20010904//EN"
 "http://www.w3.org/TR/2001/REC-SVG-20010904/DTD/svg10.dtd">
<svg version="1.0" xmlns="http://www.w3.org/2000/svg"
 width="1280.000000pt" height="1280.000000pt" viewBox="0 0 1280.000000 1280.000000"
 preserveAspectRatio="xMidYMid meet">
<g transform="translate(0.000000,1280.000000) scale(0.100000,-0.100000)"
fill="#000000" stroke="none">
<path d="M6135 12789 c-44 -4 -168 -15 -275 -24 -1684 -133 -3271 -960 -4370
-2280 -840 -1008 -1354 -2259 -1455 -3540 -8 -104 -20 -237 -25 -295 -13 -133
-13 -374 0 -493 5 -51 14 -162 20 -247 43 -619 191 -1265 427 -1860 434 -1093
1160 -2043 2104 -2756 958 -723 2118 -1166 3294 -1259 105 -8 237 -20 295 -25
134 -13 366 -13 500 0 58 5 191 17 295 25 1595 126 3109 880 4206 2095 929
1030 1506 2361 1614 3725 8 105 20 237 25 295 6 58 10 170 10 250 0 80 -4 192
-10 250 -5 58 -17 191 -25 295 -142 1796 -1086 3490 -2555 4582 -960 714
-2100 1146 -3265 1238 -104 8 -237 20 -295 25 -121 12 -398 11 -515 -1z m3823
-2769 c392 -679 710 -1240 708 -1247 -4 -10 -68 -13 -304 -13 l-299 0 -12
-197 c-17 -280 -41 -453 -96 -693 -269 -1174 -1071 -2176 -2160 -2701 -413
-199 -828 -318 -1305 -376 -203 -24 -667 -24 -870 1 -839 102 -1583 431 -2200
973 -530 466 -934 1075 -1158 1748 -72 216 -148 540 -130 551 16 10 26 -7 43
-76 234 -927 894 -1713 1770 -2108 151 -68 434 -162 590 -197 268 -60 365 -69
700 -70 308 0 363 4 575 42 627 112 1196 410 1656 868 257 256 428 485 580
779 223 431 331 836 359 1344 l6 112 -305 0 c-279 0 -306 1 -306 17 0 25 1422
2484 1434 2480 6 -2 332 -559 724 -1237z m160 -5590 c1 -2122 -1 -2876 -9
-2887 -10 -11 -168 -13 -943 -11 l-931 3 -3 1768 -2 1768 37 22 c75 43 280
181 358 240 466 352 867 805 1155 1302 77 135 212 414 266 553 26 67 53 121
58 119 8 -3 12 -871 14 -2877z m-7064 1273 c482 -465 1044 -807 1654 -1008
l82 -27 -2 -1566 -3 -1567 -929 -3 c-678 -1 -932 1 -942 9 -12 10 -14 359 -14
2144 0 1172 3 2135 7 2138 3 4 8 7 11 7 2 0 63 -57 136 -127z m4400 -1019 c11
-29 7 -3114 -4 -3135 -10 -19 -31 -19 -939 -19 -770 0 -930 2 -940 14 -8 10
-10 405 -9 1482 l3 1469 75 -1 c41 -1 183 -5 315 -9 261 -8 445 1 694 36 236
33 545 103 701 158 68 24 96 26 104 5z"/>
</g>
</svg>
